<svg xmlns="http://www.w3.org/2000/svg" width="580" height="400"><g><title>background</title><rect id="canvas_background" width="582" height="402" x="-1" y="-1" fill="#fff"/><g id="canvasGrid" display="none"><rect id="svg_2" width="100%" height="100%" x="0" y="0" fill="url(#gridpattern)" stroke-width="0"/></g></g><g><title>Layer 1</title><rect id="svg_1" width="420" height="275" x="47.5" y="44.453" fill="#fafafa" stroke="#000" stroke-width="0" rx="10"/><rect id="svg_4" width="128" height="275" x="47.5" y="44.453" fill="#64717f" stroke="#000" stroke-opacity="null" stroke-width="0" rx="10"/><rect id="svg_6" width="128" height="275" x="338.5" y="44.453" fill="#f1f1f1" stroke="#000" stroke-opacity="null" stroke-width="0" rx="10"/><rect id="svg_7" width="268" height="275" x="158.5" y="44.453" fill="#f1f1f1" stroke="#000" stroke-opacity="null" stroke-width="0"/><rect id="svg_9" width="76" height="8" x="55.5" y="82.453" fill="#e5e5e5" stroke="#000" stroke-opacity="null" stroke-width="0" rx="4"/><g id="svg_26"><rect id="svg_10" width="80" height="6" x="57.5" y="107.953" fill="#929ca6" stroke="#000" stroke-opacity="null" stroke-width="0" rx="3"/><rect id="svg_11" width="25" height="6" x="60.5" y="124.953" fill="#8b9196" stroke="#000" stroke-opacity="null" stroke-width="0" rx="3"/><rect id="svg_13" width="45" height="6" x="90.5" y="125.453" fill="#8b9196" stroke="#000" stroke-opacity="null" stroke-width="0" rx="3"/><rect id="svg_14" width="52" height="6" x="60.5" y="139.453" fill="#8b9196" stroke="#000" stroke-opacity="null" stroke-width="0" rx="3"/></g><g id="svg_31"><rect id="svg_27" width="80" height="6" x="57.5" y="170.453" fill="#ffb27c" stroke="#000" stroke-opacity="null" stroke-width="0" rx="3"/><rect id="svg_28" width="25" height="6" x="60.5" y="187.453" fill="#8b9196" stroke="#000" stroke-opacity="null" stroke-width="0" rx="3"/><rect id="svg_29" width="45" height="6" x="90.5" y="187.953" fill="#8b9196" stroke="#000" stroke-opacity="null" stroke-width="0" rx="3"/><rect id="svg_30" width="52" height="6" x="60.5" y="201.953" fill="#8b9196" stroke="#000" stroke-opacity="null" stroke-width="0" rx="3"/></g><g id="svg_36"><rect id="svg_32" width="80" height="6" x="57.5" y="232.453" fill="#929ca6" stroke="#000" stroke-opacity="null" stroke-width="0" rx="3"/><rect id="svg_33" width="25" height="6" x="60.5" y="249.453" fill="#8b9196" stroke="#000" stroke-opacity="null" stroke-width="0" rx="3"/><rect id="svg_34" width="45" height="6" x="90.5" y="249.953" fill="#8b9196" stroke="#000" stroke-opacity="null" stroke-width="0" rx="3"/><rect id="svg_35" width="52" height="6" x="60.5" y="263.953" fill="#8b9196" stroke="#000" stroke-opacity="null" stroke-width="0" rx="3"/></g><g id="svg_41"><rect id="svg_37" width="80" height="6" x="57.5" y="107.953" fill="#929ca6" stroke="#000" stroke-opacity="null" stroke-width="0" rx="3"/><rect id="svg_38" width="25" height="6" x="60.5" y="124.953" fill="#8b9196" stroke="#000" stroke-opacity="null" stroke-width="0" rx="3"/><rect id="svg_39" width="45" height="6" x="90.5" y="125.453" fill="#8b9196" stroke="#000" stroke-opacity="null" stroke-width="0" rx="3"/><rect id="svg_40" width="52" height="6" x="60.5" y="139.453" fill="#8b9196" stroke="#000" stroke-opacity="null" stroke-width="0" rx="3"/></g><g id="svg_47"><rect id="svg_3" width="80" height="6" x="202" y="64.453" fill="#929ca6" stroke="#000" stroke-opacity="null" stroke-width="0" rx="3"/><rect id="svg_5" width="25" height="6" x="202" y="80.953" fill="#DDD" stroke="#000" stroke-opacity="null" stroke-width="0" rx="3"/><rect id="svg_8" width="100" height="6" x="235" y="81.953" fill="#DDD" stroke="#000" stroke-opacity="null" stroke-width="0" rx="3"/><rect id="svg_12" width="200" height="6" x="202" y="95.953" fill="#DDD" stroke="#000" stroke-opacity="null" stroke-width="0" rx="3"/></g><g id="svg_52"><rect id="svg_48" width="80" height="6" x="203" y="116.953" fill="#929ca6" stroke="#000" stroke-opacity="null" stroke-width="0" rx="3"/><rect id="svg_49" width="25" height="6" x="203" y="133.453" fill="#DDD" stroke="#000" stroke-opacity="null" stroke-width="0" rx="3"/><rect id="svg_50" width="100" height="6" x="236" y="134.453" fill="#DDD" stroke="#000" stroke-opacity="null" stroke-width="0" rx="3"/><rect id="svg_51" width="200" height="6" x="203" y="148.453" fill="#DDD" stroke="#000" stroke-opacity="null" stroke-width="0" rx="3"/></g><g id="svg_58"><rect id="svg_54" width="80" height="6" x="220.5" y="223.953" fill="#929ca6" stroke="#000" stroke-opacity="null" stroke-width="0" rx="3"/><rect id="svg_55" width="25" height="6" x="203" y="234.453" fill="#DDD" stroke="#000" stroke-opacity="null" stroke-width="0" rx="3"/><rect id="svg_56" width="100" height="6" x="239" y="234.453" fill="#DDD" stroke="#000" stroke-opacity="null" stroke-width="0" rx="3"/><rect id="svg_57" width="200" height="6" x="203" y="244.953" fill="#DDD" stroke="#000" stroke-opacity="null" stroke-width="0" rx="3"/><rect id="svg_64" width="13.5" height="6" x="203" y="223.953" fill="#8CD79F" stroke="#000" stroke-opacity="null" stroke-width="0" rx="3"/></g><g id="svg_76"><rect id="svg_71" width="80" height="6" x="220.5" y="261.953" fill="#929ca6" stroke="#000" stroke-opacity="null" stroke-width="0" rx="3"/><rect id="svg_72" width="25" height="6" x="203" y="272.453" fill="#DDD" stroke="#000" stroke-opacity="null" stroke-width="0" rx="3"/><rect id="svg_73" width="100" height="6" x="239" y="272.453" fill="#DDD" stroke="#000" stroke-opacity="null" stroke-width="0" rx="3"/><rect id="svg_74" width="200" height="6" x="203" y="282.953" fill="#DDD" stroke="#000" stroke-opacity="null" stroke-width="0" rx="3"/><rect id="svg_75" width="13.5" height="6" x="203" y="261.953" fill="#fc7e7e" stroke="#000" stroke-opacity="null" stroke-width="0" rx="3"/></g><path id="svg_77" fill="#fff" stroke="#000" stroke-opacity="null" stroke-width="0" d="m144.180352,89.827979l-2.682163,-2.681859c0.361335,-0.59576 0.573244,-1.292757 0.57362,-2.040185c-0.000376,-2.180187 -1.766027,-3.946014 -3.945331,-3.946767c-2.179681,0.000753 -3.946084,1.76658 -3.946084,3.946391c0,2.178682 1.766403,3.944509 3.946084,3.944509c0.747889,0 1.444965,-0.211884 2.040792,-0.573179l2.682916,2.682236l1.330166,-1.331145zm-8.49477,-4.722421c0.002258,-1.34808 1.092663,-2.437986 2.44052,-2.440996c1.347104,0.003011 2.438261,1.092916 2.44052,2.440996c-0.002635,1.347328 -1.093416,2.437233 -2.44052,2.440244c-1.347856,-0.003011 -2.438261,-1.092916 -2.44052,-2.440244z"/><path id="svg_78" fill="#faa" stroke="#000" stroke-opacity="null" stroke-width="0" d="m66.341684,53.433491c-0.430997,1.189763 -1.467752,2.030407 -2.682335,2.030407c-1.215339,0 -2.252317,-0.840644 -2.682358,-2.030407l-6.567983,3.123804l1.847848,4.884136l2.029569,-0.965665l0,9.957654l10.817256,0l0,-9.922466l1.956698,0.931033l1.848559,-4.884132l-6.567253,-3.124364l0,-0.000001z"/><g id="svg_82"><rect id="svg_21" width="200.999" height="45" x="203" y="166.499" fill="#8fa2b7" stroke="#000" stroke-width="0"/><rect id="svg_22" width="25" height="6" x="215" y="173.953" fill="#FFB27C" stroke="#000" stroke-opacity="null" stroke-width="0" rx="3"/><rect id="svg_23" width="100" height="6" x="244.5" y="173.953" fill="#D1FFB4" stroke="#000" stroke-opacity="null" stroke-width="0" rx="3"/><rect id="svg_24" width="46.5" height="6" x="222.5" y="186.453" fill="#D3BEE7" stroke="#000" stroke-opacity="null" stroke-width="0" rx="3"/><rect id="svg_25" width="100" height="6" x="222.5" y="196.953" fill="#DDD" stroke="#000" stroke-opacity="null" stroke-width="0" rx="3"/><rect id="svg_53" width="58" height="6" x="273.999" y="186.453" fill="#DDD" stroke="#000" stroke-opacity="null" stroke-width="0" rx="3"/></g></g></svg>